<?xml version="1.0" encoding="UTF-8"?>
<!DOCTYPE svg PUBLIC "-//W3C//DTD SVG 1.1//EN" "http://www.w3.org/Graphics/SVG/1.1/DTD/svg11.dtd">
<svg xmlns="http://www.w3.org/2000/svg" version="1.1" width="1988px" height="439px" style="shape-rendering:geometricPrecision; text-rendering:geometricPrecision; image-rendering:optimizeQuality; fill-rule:evenodd; clip-rule:evenodd" xmlns:xlink="http://www.w3.org/1999/xlink">
<g><path style="opacity:1" fill="#fefefe" d="M -0.5,-0.5 C 662.167,-0.5 1324.83,-0.5 1987.5,-0.5C 1987.5,145.833 1987.5,292.167 1987.5,438.5C 1324.83,438.5 662.167,438.5 -0.5,438.5C -0.5,292.167 -0.5,145.833 -0.5,-0.5 Z"/></g>
<g><path style="opacity:1" fill="#ba82e7" d="M 255.5,49.5 C 722.833,49.5 1190.17,49.5 1657.5,49.5C 1657.5,157.5 1657.5,265.5 1657.5,373.5C 1533.83,373.5 1410.17,373.5 1286.5,373.5C 1286.5,370.5 1286.5,367.5 1286.5,364.5C 1401.83,364.5 1517.17,364.5 1632.5,364.5C 1633.16,262.495 1632.5,160.828 1630.5,59.5C 1180.83,59.5 731.167,59.5 281.5,59.5C 281.5,160.833 281.5,262.167 281.5,363.5C 396.332,364.5 511.332,364.833 626.5,364.5C 626.5,367.5 626.5,370.5 626.5,373.5C 502.833,373.5 379.167,373.5 255.5,373.5C 255.5,265.5 255.5,157.5 255.5,49.5 Z"/></g>
<g><path style="opacity:1" fill="#ead9f7" d="M 912.5,159.5 C 912.168,193.337 912.502,227.004 913.5,260.5C 913.5,260.833 913.5,261.167 913.5,261.5C 912.504,261.586 911.671,261.252 911,260.5C 910.833,243.667 910.667,226.833 910.5,210C 910.5,192.82 911.167,175.986 912.5,159.5 Z"/></g>
<g><path style="opacity:1" fill="#b883e4" d="M 971.5,159.5 C 973.833,159.5 976.167,159.5 978.5,159.5C 978.5,168.5 978.5,177.5 978.5,186.5C 981.385,186.806 984.052,186.473 986.5,185.5C 990.733,185.461 994.733,184.795 998.5,183.5C 1010.17,183.5 1021.83,183.5 1033.5,183.5C 1037.57,185.054 1041.9,185.72 1046.5,185.5C 1046.83,185.5 1047.17,185.5 1047.5,185.5C 1054.56,186.63 1061.22,188.964 1067.5,192.5C 1070.98,197.408 1073.82,202.741 1076,208.5C 1077.96,218.208 1077.79,227.875 1075.5,237.5C 1074.49,240.049 1073.66,242.715 1073,245.5C 1071.96,246.71 1070.79,247.71 1069.5,248.5C 1070.26,245.513 1071.09,242.513 1072,239.5C 1072.75,238.874 1073.58,238.374 1074.5,238C 1072.54,228.763 1071.88,219.263 1072.5,209.5C 1060.37,209.976 1050.2,206.643 1042,199.5C 1041.43,200.354 1040.76,201.354 1040,202.5C 1038.56,203.148 1037.06,203.481 1035.5,203.5C 1035.65,204.552 1035.48,205.552 1035,206.5C 1034.67,206.167 1034.33,205.833 1034,205.5C 1027.23,208.478 1020.07,209.811 1012.5,209.5C 1012.67,218.839 1012.5,228.173 1012,237.5C 1010.11,238.617 1009.27,240.284 1009.5,242.5C 1000.95,244.461 992.288,244.961 983.5,244C 980.549,243.904 977.882,243.071 975.5,241.5C 974.175,229.97 974.175,218.47 975.5,207C 972.574,205.322 969.408,203.155 966,200.5C 964.86,197.898 964.027,195.231 963.5,192.5C 964.552,192.649 965.552,192.483 966.5,192C 965.663,190.989 965.33,189.822 965.5,188.5C 966.5,188.5 967.5,188.5 968.5,188.5C 968.351,187.448 968.517,186.448 969,185.5C 971.308,185.793 973.474,184.959 975.5,183C 974.167,182.333 974.167,181.667 975.5,181C 973.19,180.503 970.857,180.337 968.5,180.5C 968.5,173.833 968.5,167.167 968.5,160.5C 969.791,160.737 970.791,160.404 971.5,159.5 Z"/></g>
<g><path style="opacity:1" fill="#eee5f5" d="M 980.5,159.5 C 982.261,167.467 983.261,175.8 983.5,184.5C 988.493,184.084 993.493,183.751 998.5,183.5C 994.733,184.795 990.733,185.461 986.5,185.5C 984.5,185.5 982.5,185.5 980.5,185.5C 980.5,176.833 980.5,168.167 980.5,159.5 Z"/></g>
<g><path style="opacity:1" fill="#bb84e7" d="M 914.5,159.5 C 933.5,159.5 952.5,159.5 971.5,159.5C 970.791,160.404 969.791,160.737 968.5,160.5C 968.5,167.167 968.5,173.833 968.5,180.5C 970.857,180.337 973.19,180.503 975.5,181C 974.167,181.667 974.167,182.333 975.5,183C 973.474,184.959 971.308,185.793 969,185.5C 968.517,186.448 968.351,187.448 968.5,188.5C 967.5,188.5 966.5,188.5 965.5,188.5C 965.33,189.822 965.663,190.989 966.5,192C 965.552,192.483 964.552,192.649 963.5,192.5C 964.027,195.231 964.86,197.898 966,200.5C 969.408,203.155 972.574,205.322 975.5,207C 974.175,218.47 974.175,229.97 975.5,241.5C 977.882,243.071 980.549,243.904 983.5,244C 992.288,244.961 1000.95,244.461 1009.5,242.5C 1009.27,240.284 1010.11,238.617 1012,237.5C 1012.5,228.173 1012.67,218.839 1012.5,209.5C 1020.07,209.811 1027.23,208.478 1034,205.5C 1034.33,205.833 1034.67,206.167 1035,206.5C 1035.48,205.552 1035.65,204.552 1035.5,203.5C 1037.06,203.481 1038.56,203.148 1040,202.5C 1040.76,201.354 1041.43,200.354 1042,199.5C 1050.2,206.643 1060.37,209.976 1072.5,209.5C 1071.88,219.263 1072.54,228.763 1074.5,238C 1073.58,238.374 1072.75,238.874 1072,239.5C 1071.09,242.513 1070.26,245.513 1069.5,248.5C 1066.28,251.483 1062.61,253.983 1058.5,256C 1055.28,256.9 1052.28,258.067 1049.5,259.5C 1047.78,259.629 1046.12,259.962 1044.5,260.5C 1039.9,260.28 1035.57,260.946 1031.5,262.5C 1014.42,263.054 997.421,262.22 980.5,260C 977.996,259.302 975.663,258.469 973.5,257.5C 971.393,256.532 969.059,256.198 966.5,256.5C 966.5,257.5 966.5,258.5 966.5,259.5C 949.214,260.472 931.88,260.806 914.5,260.5C 914.5,226.833 914.5,193.167 914.5,159.5 Z"/></g>
<g><path style="opacity:1" fill="#d8bdee" d="M 978.5,159.5 C 979.167,159.5 979.833,159.5 980.5,159.5C 980.5,168.167 980.5,176.833 980.5,185.5C 982.5,185.5 984.5,185.5 986.5,185.5C 984.052,186.473 981.385,186.806 978.5,186.5C 978.5,177.5 978.5,168.5 978.5,159.5 Z"/></g>
<g><path style="opacity:1" fill="#ba84e7" d="M 1102.5,159.5 C 1123.83,159.5 1145.17,159.5 1166.5,159.5C 1166.33,185.169 1166.5,210.835 1167,236.5C 1167.38,237.056 1167.88,237.389 1168.5,237.5C 1169.29,239.104 1170.62,239.771 1172.5,239.5C 1173.92,240.451 1175.59,240.784 1177.5,240.5C 1176.53,247.45 1175.87,254.45 1175.5,261.5C 1161.17,261.5 1146.83,261.5 1132.5,261.5C 1125.22,261.385 1118.22,260.052 1111.5,257.5C 1108.26,255.608 1105.26,253.274 1102.5,250.5C 1102.5,220.167 1102.5,189.833 1102.5,159.5 Z"/></g>
<g><path style="opacity:1" fill="#f7f5f9" d="M 458.5,183.5 C 456.167,184.167 453.833,184.833 451.5,185.5C 445.407,186.452 439.407,187.785 433.5,189.5C 431.833,189.5 430.167,189.5 428.5,189.5C 428.703,187.61 428.037,186.11 426.5,185C 405.836,184.5 385.169,184.333 364.5,184.5C 363.508,184.328 362.842,184.662 362.5,185.5C 361.596,186.209 361.263,187.209 361.5,188.5C 360.549,187.081 360.216,185.415 360.5,183.5C 386.878,184.01 413.211,183.343 439.5,181.5C 445.882,181.793 452.215,182.46 458.5,183.5 Z"/></g>
<g><path style="opacity:1" fill="#e0c8f3" d="M 502.5,184.5 C 485.463,183.032 468.463,183.366 451.5,185.5C 453.833,184.833 456.167,184.167 458.5,183.5C 471.481,182.455 484.481,182.289 497.5,183C 499.382,183.198 501.048,183.698 502.5,184.5 Z"/></g>
<g><path style="opacity:1" fill="#e0c8f4" d="M 559.5,183.5 C 564.489,182.834 569.656,182.501 575,182.5C 582.728,182.316 590.228,182.983 597.5,184.5C 584.851,183.678 572.185,183.345 559.5,183.5 Z"/></g>
<g><path style="opacity:1" fill="#dbc0f3" d="M 1434.5,183.5 C 1472.83,182.167 1511.17,182.167 1549.5,183.5C 1550.12,189.598 1549.45,195.265 1547.5,200.5C 1547.82,194.642 1547.49,188.975 1546.5,183.5C 1509.17,183.5 1471.83,183.5 1434.5,183.5 Z"/></g>
<g><path style="opacity:1" fill="#e2cbf5" d="M 1430.5,183.5 C 1427.03,184.525 1423.36,185.192 1419.5,185.5C 1419.92,184.778 1420.58,184.278 1421.5,184C 1424.48,183.502 1427.48,183.335 1430.5,183.5 Z"/></g>
<g><path style="opacity:1" fill="#dac1ef" d="M 364.5,185.5 C 364.5,185.167 364.5,184.833 364.5,184.5C 385.169,184.333 405.836,184.5 426.5,185C 428.037,186.11 428.703,187.61 428.5,189.5C 430.167,189.5 431.833,189.5 433.5,189.5C 429.684,191.351 426.684,190.351 424.5,186.5C 405.178,185.5 385.845,185.167 366.5,185.5C 365.833,185.5 365.167,185.5 364.5,185.5 Z"/></g>
<g><path style="opacity:1" fill="#e7d4f6" d="M 599.5,184.5 C 602.187,184.336 604.854,184.503 607.5,185C 608.416,185.278 609.082,185.778 609.5,186.5C 605.96,186.247 602.627,185.581 599.5,184.5 Z"/></g>
<g><path style="opacity:1" fill="#dec4f3" d="M 813.5,188.5 C 813.414,187.504 813.748,186.671 814.5,186C 793.167,185.333 771.833,185.333 750.5,186C 749.364,187.145 748.364,188.312 747.5,189.5C 747.227,187.549 747.893,186.049 749.5,185C 771.5,184.333 793.5,184.333 815.5,185C 816.172,186.579 815.505,187.746 813.5,188.5 Z"/></g>
<g><path style="opacity:1" fill="#e5d1f6" d="M 1033.5,183.5 C 1038.1,183.28 1042.43,183.946 1046.5,185.5C 1041.9,185.72 1037.57,185.054 1033.5,183.5 Z"/></g>
<g><path style="opacity:1" fill="#e3cdf5" d="M 1251.5,183.5 C 1246.38,184.806 1241.05,185.473 1235.5,185.5C 1240.6,184.043 1245.93,183.376 1251.5,183.5 Z"/></g>
<g><path style="opacity:1" fill="#bb84e7" d="M 1430.5,183.5 C 1431.83,183.5 1433.17,183.5 1434.5,183.5C 1471.83,183.5 1509.17,183.5 1546.5,183.5C 1546.5,188.833 1546.5,194.167 1546.5,199.5C 1537.49,199.334 1528.49,199.5 1519.5,200C 1518.39,201.813 1519.06,202.646 1521.5,202.5C 1521.83,202.5 1522.17,202.5 1522.5,202.5C 1522.83,202.5 1523.17,202.5 1523.5,202.5C 1524.35,203.966 1525.68,204.8 1527.5,205C 1528.82,205.816 1529.49,206.983 1529.5,208.5C 1529.92,210.094 1530.59,211.594 1531.5,213C 1529.82,215.547 1529.16,218.38 1529.5,221.5C 1528.5,221.5 1527.5,221.5 1526.5,221.5C 1526.5,222.833 1526.5,224.167 1526.5,225.5C 1526.17,226.167 1525.83,226.833 1525.5,227.5C 1525.17,227.5 1524.83,227.5 1524.5,227.5C 1521.9,228.468 1519.57,229.801 1517.5,231.5C 1516.39,231.557 1515.39,231.89 1514.5,232.5C 1510.01,233.34 1505.68,234.34 1501.5,235.5C 1493.9,235.588 1486.57,236.588 1479.5,238.5C 1474.17,238.5 1468.83,238.5 1463.5,238.5C 1454.16,238.334 1444.83,238.5 1435.5,239C 1432.83,240.667 1432.83,242.333 1435.5,244C 1460.16,244.5 1484.83,244.667 1509.5,244.5C 1514.31,245.593 1519.31,246.259 1524.5,246.5C 1527.94,248.204 1531.61,249.538 1535.5,250.5C 1536.83,251.167 1537.83,252.167 1538.5,253.5C 1539.61,255.307 1540.28,257.307 1540.5,259.5C 1539.82,262.178 1539.16,264.844 1538.5,267.5C 1536.77,268.236 1535.77,269.57 1535.5,271.5C 1529.34,275.552 1522.67,278.218 1515.5,279.5C 1511.96,279.753 1508.63,280.419 1505.5,281.5C 1505.17,281.5 1504.83,281.5 1504.5,281.5C 1500.51,281.116 1496.84,281.783 1493.5,283.5C 1467.49,284.725 1441.49,284.725 1415.5,283.5C 1411.43,281.946 1407.1,281.28 1402.5,281.5C 1399.03,280.475 1395.36,279.808 1391.5,279.5C 1389.39,278.217 1387.06,277.384 1384.5,277C 1383.62,276.292 1382.95,275.458 1382.5,274.5C 1380.68,271.596 1380.35,268.596 1381.5,265.5C 1384.98,264.343 1388.32,263.01 1391.5,261.5C 1392.29,261.217 1392.96,260.717 1393.5,260C 1389.87,258.677 1386.21,257.511 1382.5,256.5C 1382.03,255.094 1381.03,254.427 1379.5,254.5C 1377.36,250.679 1377.02,246.679 1378.5,242.5C 1380.17,241.833 1381.83,241.167 1383.5,240.5C 1385.39,239.464 1387.22,239.464 1389,240.5C 1394.58,238.117 1400.41,236.617 1406.5,236C 1406.03,234.271 1405.03,233.105 1403.5,232.5C 1401.5,231.833 1399.5,231.167 1397.5,230.5C 1395.53,229.094 1393.53,227.594 1391.5,226C 1390.21,225.51 1388.87,225.343 1387.5,225.5C 1387.03,224.094 1386.03,223.427 1384.5,223.5C 1384.5,223.167 1384.5,222.833 1384.5,222.5C 1384.02,220.362 1382.85,218.695 1381,217.5C 1380.5,212.845 1380.33,208.179 1380.5,203.5C 1381.94,202.18 1382.61,200.514 1382.5,198.5C 1385.17,198.052 1387.17,196.719 1388.5,194.5C 1389.17,193.833 1389.83,193.167 1390.5,192.5C 1395.04,192.587 1399.04,191.253 1402.5,188.5C 1407.99,186.601 1413.66,185.601 1419.5,185.5C 1423.36,185.192 1427.03,184.525 1430.5,183.5 Z"/></g>
<g><path style="opacity:1" fill="#ba83e7" d="M 502.5,184.5 C 507.05,185.491 511.717,186.491 516.5,187.5C 516.5,188.167 516.833,188.5 517.5,188.5C 519.391,191.172 522.058,192.172 525.5,191.5C 529.767,190.744 533.767,189.411 537.5,187.5C 539.265,186.539 541.265,186.205 543.5,186.5C 547.36,186.192 551.026,185.525 554.5,184.5C 556.292,184.634 557.958,184.301 559.5,183.5C 572.185,183.345 584.851,183.678 597.5,184.5C 598.167,184.5 598.833,184.5 599.5,184.5C 602.627,185.581 605.96,186.247 609.5,186.5C 611.302,187.458 613.302,188.125 615.5,188.5C 615.5,188.833 615.5,189.167 615.5,189.5C 615.821,191.048 616.821,191.715 618.5,191.5C 618.461,193.359 619.294,194.692 621,195.5C 621.5,217.164 621.667,238.831 621.5,260.5C 600.5,260.5 579.5,260.5 558.5,260.5C 558.667,243.497 558.5,226.497 558,209.5C 555.699,208.133 553.199,207.466 550.5,207.5C 542.589,207.079 534.923,207.745 527.5,209.5C 526.503,226.325 526.17,243.325 526.5,260.5C 504.5,260.5 482.5,260.5 460.5,260.5C 460.5,243.167 460.5,225.833 460.5,208.5C 458.784,208.371 457.117,208.038 455.5,207.5C 449.158,207.334 442.825,207.5 436.5,208C 434.942,208.21 433.609,208.71 432.5,209.5C 430.514,226.134 429.848,243.134 430.5,260.5C 409.167,260.5 387.833,260.5 366.5,260.5C 366.5,235.5 366.5,210.5 366.5,185.5C 385.845,185.167 405.178,185.5 424.5,186.5C 426.684,190.351 429.684,191.351 433.5,189.5C 439.407,187.785 445.407,186.452 451.5,185.5C 468.463,183.366 485.463,183.032 502.5,184.5 Z"/></g>
<g><path style="opacity:1" fill="#e4cff5" d="M 502.5,184.5 C 507.596,184.044 512.262,185.044 516.5,187.5C 511.717,186.491 507.05,185.491 502.5,184.5 Z"/></g>
<g><path style="opacity:1" fill="#d9baf1" d="M 554.5,184.5 C 551.026,185.525 547.36,186.192 543.5,186.5C 546.845,184.783 550.511,184.116 554.5,184.5 Z"/></g>
<g><path style="opacity:1" fill="#ebdef4" d="M 1047.5,185.5 C 1055.26,184.967 1061.92,187.3 1067.5,192.5C 1061.22,188.964 1054.56,186.63 1047.5,185.5 Z"/></g>
<g><path style="opacity:1" fill="#bb84e7" d="M 1251.5,183.5 C 1273.56,182.979 1295.56,183.812 1317.5,186C 1324.31,187.911 1331.14,189.745 1338,191.5C 1339.36,192.371 1340.53,193.371 1341.5,194.5C 1343.46,195.492 1345.46,196.492 1347.5,197.5C 1347.5,198.5 1347.5,199.5 1347.5,200.5C 1348.5,200.5 1349.5,200.5 1350.5,200.5C 1352.73,203.831 1354.4,207.498 1355.5,211.5C 1357.13,221.81 1356.13,231.81 1352.5,241.5C 1350.53,243.808 1348.53,246.142 1346.5,248.5C 1345.83,248.833 1345.17,249.167 1344.5,249.5C 1339.79,251.842 1335.12,254.175 1330.5,256.5C 1327.67,256.584 1325.01,257.25 1322.5,258.5C 1300,262.084 1277.33,263.418 1254.5,262.5C 1251.46,262.492 1248.46,262.159 1245.5,261.5C 1242.03,260.475 1238.36,259.808 1234.5,259.5C 1228.78,259.223 1223.44,257.889 1218.5,255.5C 1217.07,254.463 1215.4,253.796 1213.5,253.5C 1210.67,253.002 1208.34,251.669 1206.5,249.5C 1203.14,245.808 1199.8,242.141 1196.5,238.5C 1195.4,237.395 1194.73,236.062 1194.5,234.5C 1194.33,226.493 1194.5,218.493 1195,210.5C 1196.89,209.383 1197.73,207.716 1197.5,205.5C 1199.48,202.19 1201.82,199.19 1204.5,196.5C 1206.85,194.659 1209.52,193.326 1212.5,192.5C 1218.17,191.609 1223.5,189.942 1228.5,187.5C 1230.83,186.833 1233.17,186.167 1235.5,185.5C 1241.05,185.473 1246.38,184.806 1251.5,183.5 Z"/></g>
<g><path style="opacity:1" fill="#bb84e7" d="M 637.5,185.5 C 660.5,185.5 683.5,185.5 706.5,185.5C 706.34,187.199 706.506,188.866 707,190.5C 708.967,195.02 711.134,199.354 713.5,203.5C 714.857,204.59 715.857,205.924 716.5,207.5C 717.508,209.544 718.508,211.544 719.5,213.5C 719.5,214.167 719.5,214.833 719.5,215.5C 721.086,218.257 722.086,221.257 722.5,224.5C 724.046,226.882 724.713,229.549 724.5,232.5C 726.5,232.5 728.5,232.5 730.5,232.5C 734.876,223.72 738.876,214.72 742.5,205.5C 742.413,202.261 743.08,199.261 744.5,196.5C 745.912,194.396 746.912,192.063 747.5,189.5C 748.364,188.312 749.364,187.145 750.5,186C 771.833,185.333 793.167,185.333 814.5,186C 813.748,186.671 813.414,187.504 813.5,188.5C 810.883,192.255 808.05,195.922 805,199.5C 804.214,203.29 802.214,206.29 799,208.5C 796.643,211.881 794.81,215.547 793.5,219.5C 790.675,220.478 789.342,222.478 789.5,225.5C 788.5,225.5 787.5,225.5 786.5,225.5C 786.5,226.5 786.5,227.5 786.5,228.5C 785.5,228.5 784.5,228.5 783.5,228.5C 783.5,230.167 783.5,231.833 783.5,233.5C 782.5,233.5 781.5,233.5 780.5,233.5C 780.587,236.739 779.92,239.739 778.5,242.5C 776.642,246.539 774.142,250.205 771,253.5C 770.517,254.448 770.351,255.448 770.5,256.5C 769.504,256.414 768.671,256.748 768,257.5C 767.011,259.97 765.845,262.303 764.5,264.5C 763.243,267.427 761.243,269.761 758.5,271.5C 755.039,272.551 752.373,274.551 750.5,277.5C 745.035,278.698 739.702,280.198 734.5,282C 727.872,283.052 721.206,283.552 714.5,283.5C 694.5,283.5 674.5,283.5 654.5,283.5C 653.574,277.535 652.908,271.535 652.5,265.5C 651.209,265.737 650.209,265.404 649.5,264.5C 659.506,264.666 669.506,264.5 679.5,264C 680.056,263.617 680.389,263.117 680.5,262.5C 680.833,262.5 681.167,262.5 681.5,262.5C 682.87,262.144 683.87,261.31 684.5,260C 682.794,255.14 680.46,250.64 677.5,246.5C 676.14,243.38 675.307,240.047 675,236.5C 674.586,236.957 674.086,237.291 673.5,237.5C 670.794,235.476 669.461,232.81 669.5,229.5C 668.5,229.5 667.5,229.5 666.5,229.5C 665.612,226.757 664.445,224.09 663,221.5C 662.329,220.748 661.496,220.414 660.5,220.5C 659.217,217.99 658.217,215.323 657.5,212.5C 656.5,212.5 655.5,212.5 654.5,212.5C 654.5,211.833 654.5,211.167 654.5,210.5C 653.067,208.442 652.4,206.108 652.5,203.5C 651.5,203.5 650.5,203.5 649.5,203.5C 648.882,200.602 647.715,197.935 646,195.5C 645.329,194.748 644.496,194.414 643.5,194.5C 641.5,192.167 639.5,189.833 637.5,187.5C 636.167,186.833 636.167,186.167 637.5,185.5 Z"/></g>
<g><path style="opacity:1" fill="#cfa9ee" d="M 537.5,187.5 C 533.767,189.411 529.767,190.744 525.5,191.5C 525.5,191.167 525.5,190.833 525.5,190.5C 529.397,189.09 533.397,188.09 537.5,187.5 Z"/></g>
<g><path style="opacity:1" fill="#eee0f9" d="M 708.5,185.5 C 709.794,186.29 710.961,187.29 712,188.5C 713.131,191.445 713.964,194.445 714.5,197.5C 713.5,196.833 712.5,196.167 711.5,195.5C 710.424,192.129 709.424,188.796 708.5,185.5 Z"/></g>
<g><path style="opacity:1" fill="#e4cff5" d="M 637.5,187.5 C 639.5,189.833 641.5,192.167 643.5,194.5C 645.081,196.142 645.747,198.142 645.5,200.5C 643.197,198.022 641.031,195.355 639,192.5C 638.392,190.846 637.892,189.179 637.5,187.5 Z"/></g>
<g><path style="opacity:1" fill="#e3cef5" d="M 517.5,188.5 C 519.882,190.046 522.549,190.713 525.5,190.5C 525.5,190.833 525.5,191.167 525.5,191.5C 522.058,192.172 519.391,191.172 517.5,188.5 Z"/></g>
<g><path style="opacity:1" fill="#caa0ec" d="M 1228.5,187.5 C 1223.5,189.942 1218.17,191.609 1212.5,192.5C 1212.61,191.883 1212.94,191.383 1213.5,191C 1218.49,189.723 1223.49,188.556 1228.5,187.5 Z"/></g>
<g><path style="opacity:1" fill="#cfa8ee" d="M 1402.5,188.5 C 1399.04,191.253 1395.04,192.587 1390.5,192.5C 1394.08,190.194 1398.08,188.861 1402.5,188.5 Z"/></g>
<g><path style="opacity:1" fill="#e1c9f4" d="M 747.5,189.5 C 746.912,192.063 745.912,194.396 744.5,196.5C 744.182,193.519 745.182,191.185 747.5,189.5 Z"/></g>
<g><path style="opacity:1" fill="#ddc2f3" d="M 813.5,188.5 C 810.298,193.564 807.465,198.898 805,204.5C 803.583,206.398 802.083,208.064 800.5,209.5C 798.177,212.802 795.844,216.135 793.5,219.5C 794.81,215.547 796.643,211.881 799,208.5C 802.214,206.29 804.214,203.29 805,199.5C 808.05,195.922 810.883,192.255 813.5,188.5 Z"/></g>
<g><path style="opacity:1" fill="#e6d3f6" d="M 1341.5,194.5 C 1344.31,194.025 1346.31,195.025 1347.5,197.5C 1345.46,196.492 1343.46,195.492 1341.5,194.5 Z"/></g>
<g><path style="opacity:1" fill="#d3afef" d="M 1388.5,194.5 C 1387.17,196.719 1385.17,198.052 1382.5,198.5C 1382.61,200.514 1381.94,202.18 1380.5,203.5C 1379.83,204.833 1379.17,206.167 1378.5,207.5C 1378.5,206.167 1378.5,204.833 1378.5,203.5C 1379.87,198.512 1383.2,195.512 1388.5,194.5 Z"/></g>
<g><path style="opacity:1" fill="#ebddf6" d="M 1071.5,196.5 C 1072.5,196.5 1073.5,196.5 1074.5,196.5C 1076.39,199.455 1077.39,202.789 1077.5,206.5C 1075.14,203.451 1073.14,200.118 1071.5,196.5 Z"/></g>
<g><path style="opacity:1" fill="#cea7ee" d="M 637.5,185.5 C 661.069,184.173 684.736,184.173 708.5,185.5C 709.424,188.796 710.424,192.129 711.5,195.5C 713.046,197.882 713.713,200.549 713.5,203.5C 711.134,199.354 708.967,195.02 707,190.5C 706.506,188.866 706.34,187.199 706.5,185.5C 683.5,185.5 660.5,185.5 637.5,185.5 Z"/></g>
<g><path style="opacity:1" fill="#e0c8f4" d="M 744.5,196.5 C 743.08,199.261 742.413,202.261 742.5,205.5C 741.5,206.167 740.5,206.833 739.5,207.5C 740.891,205.079 741.725,202.412 742,199.5C 742.852,198.429 743.685,197.429 744.5,196.5 Z"/></g>
<g><path style="opacity:1" fill="#cda6ed" d="M 912.5,159.5 C 913.167,159.5 913.833,159.5 914.5,159.5C 914.5,193.167 914.5,226.833 914.5,260.5C 914.167,260.5 913.833,260.5 913.5,260.5C 912.502,227.004 912.168,193.337 912.5,159.5 Z"/></g>
<g><path style="opacity:1" fill="#c495eb" d="M 1546.5,183.5 C 1547.49,188.975 1547.82,194.642 1547.5,200.5C 1538.44,199.864 1529.77,200.53 1521.5,202.5C 1519.06,202.646 1518.39,201.813 1519.5,200C 1528.49,199.5 1537.49,199.334 1546.5,199.5C 1546.5,194.167 1546.5,188.833 1546.5,183.5 Z"/></g>
<g><path style="opacity:1" fill="#e8d6f6" d="M 1549.5,183.5 C 1550.49,189.31 1550.82,195.31 1550.5,201.5C 1540.99,201.173 1531.65,201.506 1522.5,202.5C 1522.17,202.5 1521.83,202.5 1521.5,202.5C 1529.77,200.53 1538.44,199.864 1547.5,200.5C 1549.45,195.265 1550.12,189.598 1549.5,183.5 Z"/></g>
<g><path style="opacity:1" fill="#ead9f7" d="M 615.5,189.5 C 615.5,189.167 615.5,188.833 615.5,188.5C 620.104,190.104 623.437,193.104 625.5,197.5C 625.831,218.673 625.497,239.673 624.5,260.5C 624.667,239.831 624.5,219.164 624,198.5C 623.617,197.944 623.117,197.611 622.5,197.5C 622.5,196.167 622.5,194.833 622.5,193.5C 621.5,193.5 620.5,193.5 619.5,193.5C 619.5,192.5 619.5,191.5 619.5,190.5C 618.041,190.567 616.708,190.234 615.5,189.5 Z"/></g>
<g><path style="opacity:1" fill="#c79aeb" d="M 615.5,189.5 C 616.708,190.234 618.041,190.567 619.5,190.5C 619.5,191.5 619.5,192.5 619.5,193.5C 620.5,193.5 621.5,193.5 622.5,193.5C 622.5,194.833 622.5,196.167 622.5,197.5C 623.133,208.469 623.466,219.469 623.5,230.5C 623.499,240.856 622.832,250.856 621.5,260.5C 621.667,238.831 621.5,217.164 621,195.5C 619.294,194.692 618.461,193.359 618.5,191.5C 616.821,191.715 615.821,191.048 615.5,189.5 Z"/></g>
<g><path style="opacity:1" fill="#dbbff2" d="M 711.5,195.5 C 712.5,196.167 713.5,196.833 714.5,197.5C 714.5,198.5 714.5,199.5 714.5,200.5C 715.933,202.558 716.6,204.892 716.5,207.5C 715.857,205.924 714.857,204.59 713.5,203.5C 713.713,200.549 713.046,197.882 711.5,195.5 Z"/></g>
<g><path style="opacity:1" fill="#ddc2f3" d="M 1347.5,197.5 C 1352.91,200.583 1355.91,205.25 1356.5,211.5C 1356.17,211.5 1355.83,211.5 1355.5,211.5C 1354.4,207.498 1352.73,203.831 1350.5,200.5C 1349.5,200.5 1348.5,200.5 1347.5,200.5C 1347.5,199.5 1347.5,198.5 1347.5,197.5 Z"/></g>
<g><path style="opacity:1" fill="#fcfbfe" d="M 1453.5,204.5 C 1457.9,204.294 1462.23,204.627 1466.5,205.5C 1466.75,206.922 1467.58,207.922 1469,208.5C 1469.5,212.152 1469.67,215.818 1469.5,219.5C 1465.26,222.09 1460.59,223.09 1455.5,222.5C 1453.1,222.552 1450.76,222.219 1448.5,221.5C 1447.69,220.163 1446.52,219.163 1445,218.5C 1443.84,213.614 1444.67,209.281 1447.5,205.5C 1449.44,204.85 1451.44,204.517 1453.5,204.5 Z"/></g>
<g><path style="opacity:1" fill="#d3b0f0" d="M 1453.5,204.5 C 1457.31,203.355 1461.31,203.188 1465.5,204C 1467.32,204.2 1468.65,205.034 1469.5,206.5C 1468.39,206.443 1467.39,206.11 1466.5,205.5C 1462.23,204.627 1457.9,204.294 1453.5,204.5 Z"/></g>
<g><path style="opacity:1" fill="#c394ea" d="M 643.5,194.5 C 644.496,194.414 645.329,194.748 646,195.5C 647.715,197.935 648.882,200.602 649.5,203.5C 650.5,203.5 651.5,203.5 652.5,203.5C 652.4,206.108 653.067,208.442 654.5,210.5C 652.025,209.313 651.025,207.313 651.5,204.5C 650.5,204.5 649.5,204.5 648.5,204.5C 648.262,202.596 647.262,201.262 645.5,200.5C 645.747,198.142 645.081,196.142 643.5,194.5 Z"/></g>
<g><path style="opacity:1" fill="#fdfdfe" d="M 1284.5,205.5 C 1285.21,206.404 1286.21,206.737 1287.5,206.5C 1289.54,215.292 1290.04,224.292 1289,233.5C 1287.17,235.48 1286.34,237.813 1286.5,240.5C 1284.6,240.796 1282.93,241.463 1281.5,242.5C 1280.5,242.5 1279.5,242.5 1278.5,242.5C 1273.34,242.818 1268.34,242.152 1263.5,240.5C 1261.95,240.179 1261.29,239.179 1261.5,237.5C 1260.49,228.856 1260.33,220.189 1261,211.5C 1262.08,209.422 1263.24,207.422 1264.5,205.5C 1271.15,204.259 1277.81,204.259 1284.5,205.5 Z"/></g>
<g><path style="opacity:1" fill="#e4d3f2" d="M 1001.5,206.5 C 994.833,206.833 988.167,207.167 981.5,207.5C 988.102,205.457 994.769,205.123 1001.5,206.5 Z"/></g>
<g><path style="opacity:1" fill="#d2afee" d="M 1100.5,159.5 C 1101.17,159.5 1101.83,159.5 1102.5,159.5C 1102.5,189.833 1102.5,220.167 1102.5,250.5C 1102.17,250.5 1101.83,250.5 1101.5,250.5C 1100.53,220.192 1100.2,189.858 1100.5,159.5 Z"/></g>
<g><path style="opacity:1" fill="#e6d6f4" d="M 455.5,207.5 C 455.5,207.833 455.5,208.167 455.5,208.5C 447.817,208.523 440.15,208.857 432.5,209.5C 433.609,208.71 434.942,208.21 436.5,208C 442.825,207.5 449.158,207.334 455.5,207.5 Z"/></g>
<g><path style="opacity:1" fill="#fdfdfe" d="M 1001.5,206.5 C 1002.79,206.263 1003.79,206.596 1004.5,207.5C 1004.84,208.338 1005.51,208.672 1006.5,208.5C 1006.15,211.045 1006.98,213.045 1009,214.5C 1009.98,222.65 1009.48,230.65 1007.5,238.5C 1006.6,239.158 1005.6,239.824 1004.5,240.5C 997.532,241.497 990.532,241.83 983.5,241.5C 982.791,240.596 981.791,240.263 980.5,240.5C 980.19,229.419 980.523,218.419 981.5,207.5C 988.167,207.167 994.833,206.833 1001.5,206.5 Z"/></g>
<g><path style="opacity:1" fill="#d9baf2" d="M 1204.5,196.5 C 1201.82,199.19 1199.48,202.19 1197.5,205.5C 1196.83,206.5 1196.17,207.5 1195.5,208.5C 1195.5,207.833 1195.5,207.167 1195.5,206.5C 1197.15,201.853 1200.15,198.52 1204.5,196.5 Z"/></g>
<g><path style="opacity:1" fill="#c496eb" d="M 1380.5,203.5 C 1380.33,208.179 1380.5,212.845 1381,217.5C 1382.85,218.695 1384.02,220.362 1384.5,222.5C 1383.83,222.5 1383.17,222.5 1382.5,222.5C 1379.66,218.016 1378.33,213.016 1378.5,207.5C 1379.17,206.167 1379.83,204.833 1380.5,203.5 Z"/></g>
<g><path style="opacity:1" fill="#cea6ee" d="M 1447.5,205.5 C 1444.67,209.281 1443.84,213.614 1445,218.5C 1446.52,219.163 1447.69,220.163 1448.5,221.5C 1446.83,221.249 1445.33,220.582 1444,219.5C 1443.16,217.162 1442.33,214.828 1441.5,212.5C 1442.12,208.891 1444.12,206.558 1447.5,205.5 Z"/></g>
<g><path style="opacity:1" fill="#e9d8f6" d="M 364.5,184.5 C 364.5,184.833 364.5,185.167 364.5,185.5C 363.502,210.328 363.169,235.328 363.5,260.5C 362.502,235.672 362.169,210.672 362.5,185.5C 362.842,184.662 363.508,184.328 364.5,184.5 Z"/></g>
<g><path style="opacity:1" fill="#e2c9f4" d="M 981.5,207.5 C 980.523,218.419 980.19,229.419 980.5,240.5C 981.791,240.263 982.791,240.596 983.5,241.5C 981.856,241.714 980.356,241.38 979,240.5C 978.5,229.505 978.333,218.505 978.5,207.5C 979.5,207.5 980.5,207.5 981.5,207.5 Z"/></g>
<g><path style="opacity:1" fill="#ebdcf6" d="M 1100.5,159.5 C 1100.2,189.858 1100.53,220.192 1101.5,250.5C 1100.59,248.981 1099.76,247.315 1099,245.5C 1098.83,231.167 1098.67,216.833 1098.5,202.5C 1098.5,187.817 1099.17,173.484 1100.5,159.5 Z"/></g>
<g><path style="opacity:1" fill="#dfc5f3" d="M 1378.5,203.5 C 1378.5,204.833 1378.5,206.167 1378.5,207.5C 1378.33,213.016 1379.66,218.016 1382.5,222.5C 1381.21,221.71 1380.04,220.71 1379,219.5C 1378.83,217.285 1378.16,215.285 1377,213.5C 1376.33,210.833 1376.33,208.167 1377,205.5C 1377.28,204.584 1377.78,203.918 1378.5,203.5 Z"/></g>
<g><path style="opacity:1" fill="#c699ea" d="M 1630.5,59.5 C 1632.5,160.828 1633.16,262.495 1632.5,364.5C 1517.17,364.5 1401.83,364.5 1286.5,364.5C 1286.17,364.5 1285.83,364.5 1285.5,364.5C 1400.33,363.5 1515.33,363.167 1630.5,363.5C 1630.5,262.5 1630.5,161.5 1630.5,60.5C 1630.5,60.1667 1630.5,59.8333 1630.5,59.5 Z"/></g>
<g><path style="opacity:1" fill="#f3ebfa" d="M 362.5,185.5 C 362.169,210.672 362.502,235.672 363.5,260.5C 363.5,260.833 363.5,261.167 363.5,261.5C 361.51,237.523 360.843,213.19 361.5,188.5C 361.263,187.209 361.596,186.209 362.5,185.5 Z"/></g>
<g><path style="opacity:1" fill="#c08ee9" d="M 550.5,208.5 C 550.5,208.167 550.5,207.833 550.5,207.5C 553.199,207.466 555.699,208.133 558,209.5C 558.5,226.497 558.667,243.497 558.5,260.5C 557.167,243.5 555.833,226.5 554.5,209.5C 553.292,208.766 551.959,208.433 550.5,208.5 Z"/></g>
<g><path style="opacity:1" fill="#e9d8f7" d="M 714.5,200.5 C 715.15,200.804 715.817,201.137 716.5,201.5C 717.32,205.631 718.32,209.631 719.5,213.5C 718.508,211.544 717.508,209.544 716.5,207.5C 716.6,204.892 715.933,202.558 714.5,200.5 Z"/></g>
<g><path style="opacity:1" fill="#eee1f9" d="M 1466.5,205.5 C 1467.39,206.11 1468.39,206.443 1469.5,206.5C 1470.17,206.5 1470.5,206.833 1470.5,207.5C 1470.5,211.167 1470.5,214.833 1470.5,218.5C 1470.5,219.167 1470.17,219.5 1469.5,219.5C 1469.67,215.818 1469.5,212.152 1469,208.5C 1467.58,207.922 1466.75,206.922 1466.5,205.5 Z"/></g>
<g><path style="opacity:1" fill="#f1e6f9" d="M 1658.5,49.5 C 1658.5,49.1667 1658.5,48.8333 1658.5,48.5C 1659.83,102.663 1660.5,157.163 1660.5,212C 1660.5,266.668 1660.17,321.168 1659.5,375.5C 1659.83,266.665 1659.5,157.999 1658.5,49.5 Z"/></g>
<g><path style="opacity:1" fill="#ca9fec" d="M 455.5,208.5 C 455.5,208.167 455.5,207.833 455.5,207.5C 457.117,208.038 458.784,208.371 460.5,208.5C 460.5,225.833 460.5,243.167 460.5,260.5C 459.833,243.5 459.167,226.5 458.5,209.5C 457.391,209.443 456.391,209.11 455.5,208.5 Z"/></g>
<g><path style="opacity:1" fill="#ddc2f3" d="M 432.5,209.5 C 432.5,209.833 432.5,210.167 432.5,210.5C 431.833,227.167 431.167,243.833 430.5,260.5C 429.848,243.134 430.514,226.134 432.5,209.5 Z"/></g>
<g><path style="opacity:1" fill="#f0e6f9" d="M 455.5,208.5 C 456.391,209.11 457.391,209.443 458.5,209.5C 458.5,226.5 458.5,243.5 458.5,260.5C 457.669,244.338 457.169,228.005 457,211.5C 455.961,210.756 455.461,209.756 455.5,208.5 Z"/></g>
<g><path style="opacity:1" fill="#dfc6f3" d="M 458.5,209.5 C 459.167,226.5 459.833,243.5 460.5,260.5C 460.5,260.833 460.5,261.167 460.5,261.5C 459.508,261.672 458.842,261.338 458.5,260.5C 458.5,243.5 458.5,226.5 458.5,209.5 Z"/></g>
<g><path style="opacity:1" fill="#c597eb" d="M 1471.5,208.5 C 1473.51,209.417 1474.51,211.083 1474.5,213.5C 1474.29,216.336 1473.63,219.002 1472.5,221.5C 1468.77,222.607 1464.94,223.273 1461,223.5C 1458.97,223.494 1457.13,223.161 1455.5,222.5C 1460.59,223.09 1465.26,222.09 1469.5,219.5C 1470.17,219.5 1470.5,219.167 1470.5,218.5C 1472.43,215.394 1472.77,212.061 1471.5,208.5 Z"/></g>
<g><path style="opacity:1" fill="#dec4f3" d="M 1523.5,202.5 C 1527.21,202.712 1529.87,204.378 1531.5,207.5C 1533.69,211.388 1534.02,215.388 1532.5,219.5C 1532.66,216.482 1532.5,213.482 1532,210.5C 1531.29,209.619 1530.46,208.953 1529.5,208.5C 1529.49,206.983 1528.82,205.816 1527.5,205C 1525.68,204.8 1524.35,203.966 1523.5,202.5 Z"/></g>
<g><path style="opacity:1" fill="#cba2ed" d="M 654.5,212.5 C 655.5,212.5 656.5,212.5 657.5,212.5C 658.217,215.323 659.217,217.99 660.5,220.5C 657.611,218.505 655.611,215.838 654.5,212.5 Z"/></g>
<g><path style="opacity:1" fill="#dbbff2" d="M 1470.5,207.5 C 1471.17,207.5 1471.5,207.833 1471.5,208.5C 1472.77,212.061 1472.43,215.394 1470.5,218.5C 1470.5,214.833 1470.5,211.167 1470.5,207.5 Z"/></g>
<g><path style="opacity:1" fill="#c698eb" d="M 1529.5,208.5 C 1530.46,208.953 1531.29,209.619 1532,210.5C 1532.5,213.482 1532.66,216.482 1532.5,219.5C 1530.51,221.486 1528.51,223.486 1526.5,225.5C 1526.5,224.167 1526.5,222.833 1526.5,221.5C 1527.5,221.5 1528.5,221.5 1529.5,221.5C 1529.16,218.38 1529.82,215.547 1531.5,213C 1530.59,211.594 1529.92,210.094 1529.5,208.5 Z"/></g>
<g><path style="opacity:1" fill="#eee1f9" d="M 1531.5,207.5 C 1532.5,207.414 1533.33,207.748 1534,208.5C 1535.8,215.379 1534.3,221.212 1529.5,226C 1528.26,226.791 1526.92,227.291 1525.5,227.5C 1525.83,226.833 1526.17,226.167 1526.5,225.5C 1528.51,223.486 1530.51,221.486 1532.5,219.5C 1534.02,215.388 1533.69,211.388 1531.5,207.5 Z"/></g>
<g><path style="opacity:1" fill="#dbbef1" d="M 364.5,185.5 C 363.843,210.856 364.509,235.856 366.5,260.5C 387.833,260.5 409.167,260.5 430.5,260.5C 408.34,261.497 386.006,261.831 363.5,261.5C 363.5,261.167 363.5,260.833 363.5,260.5C 363.169,235.328 363.502,210.328 364.5,185.5 Z"/></g>
<g><path style="opacity:1" fill="#c597ea" d="M 364.5,185.5 C 365.167,185.5 365.833,185.5 366.5,185.5C 366.5,210.5 366.5,235.5 366.5,260.5C 364.509,235.856 363.843,210.856 364.5,185.5 Z"/></g>
<g><path style="opacity:1" fill="#d0abef" d="M 742.5,205.5 C 738.876,214.72 734.876,223.72 730.5,232.5C 730.5,232.167 730.5,231.833 730.5,231.5C 731.167,229.167 731.833,226.833 732.5,224.5C 735.421,219.069 737.754,213.402 739.5,207.5C 740.5,206.833 741.5,206.167 742.5,205.5 Z"/></g>
<g><path style="opacity:1" fill="#d0abee" d="M 1067.5,192.5 C 1069.13,193.581 1070.47,194.915 1071.5,196.5C 1073.14,200.118 1075.14,203.451 1077.5,206.5C 1078.15,208.435 1078.48,210.435 1078.5,212.5C 1078.98,220.709 1078.32,228.709 1076.5,236.5C 1076.5,236.833 1076.5,237.167 1076.5,237.5C 1076.17,237.5 1075.83,237.5 1075.5,237.5C 1077.79,227.875 1077.96,218.208 1076,208.5C 1073.82,202.741 1070.98,197.408 1067.5,192.5 Z"/></g>
<g><path style="opacity:1" fill="#d4b3f0" d="M 1261.5,208.5 C 1261.22,209.289 1260.72,209.956 1260,210.5C 1259.5,218.827 1259.33,227.16 1259.5,235.5C 1258.34,227.01 1258.18,218.343 1259,209.5C 1259.67,208.748 1260.5,208.414 1261.5,208.5 Z"/></g>
<g><path style="opacity:1" fill="#f0e5f9" d="M 719.5,215.5 C 720.822,215.33 721.989,215.663 723,216.5C 724.219,221.266 725.385,225.933 726.5,230.5C 725.837,228.958 725.17,227.291 724.5,225.5C 723.817,225.137 723.15,224.804 722.5,224.5C 722.086,221.257 721.086,218.257 719.5,215.5 Z"/></g>
<g><path style="opacity:1" fill="#e8d6f6" d="M 1195.5,206.5 C 1195.5,207.167 1195.5,207.833 1195.5,208.5C 1193.79,209.635 1193.12,211.302 1193.5,213.5C 1191.97,215.634 1191.3,218.134 1191.5,221C 1191.89,224.835 1192.22,228.668 1192.5,232.5C 1191.18,229.742 1190.52,226.576 1190.5,223C 1190.42,217.305 1191.08,211.805 1192.5,206.5C 1193.5,206.5 1194.5,206.5 1195.5,206.5 Z"/></g>
<g><path style="opacity:1" fill="#ebdcf8" d="M 1284.5,205.5 C 1286.48,205.157 1287.82,205.824 1288.5,207.5C 1288.78,208.289 1289.28,208.956 1290,209.5C 1291.06,219.657 1290.56,229.657 1288.5,239.5C 1287.83,239.833 1287.17,240.167 1286.5,240.5C 1286.34,237.813 1287.17,235.48 1289,233.5C 1290.04,224.292 1289.54,215.292 1287.5,206.5C 1286.21,206.737 1285.21,206.404 1284.5,205.5 Z"/></g>
<g><path style="opacity:1" fill="#d0aaee" d="M 1193.5,213.5 C 1193.5,220.167 1193.5,226.833 1193.5,233.5C 1192.83,233.5 1192.5,233.167 1192.5,232.5C 1192.22,228.668 1191.89,224.835 1191.5,221C 1191.3,218.134 1191.97,215.634 1193.5,213.5 Z"/></g>
<g><path style="opacity:1" fill="#d2aeef" d="M 1288.5,207.5 C 1289.5,207.414 1290.33,207.748 1291,208.5C 1292.92,217.844 1292.92,227.177 1291,236.5C 1290.62,237.942 1289.79,238.942 1288.5,239.5C 1290.56,229.657 1291.06,219.657 1290,209.5C 1289.28,208.956 1288.78,208.289 1288.5,207.5 Z"/></g>
<g><path style="opacity:1" fill="#ebdcf8" d="M 1006.5,208.5 C 1007.21,210.378 1008.37,212.045 1010,213.5C 1010.5,220.826 1010.67,228.159 1010.5,235.5C 1009.27,236.306 1008.27,237.306 1007.5,238.5C 1009.48,230.65 1009.98,222.65 1009,214.5C 1006.98,213.045 1006.15,211.045 1006.5,208.5 Z"/></g>
<g><path style="opacity:1" fill="#d4b3f0" d="M 1004.5,207.5 C 1005.83,207.5 1007.17,207.5 1008.5,207.5C 1008.22,209.346 1008.89,210.68 1010.5,211.5C 1011.82,219.657 1011.82,227.657 1010.5,235.5C 1010.67,228.159 1010.5,220.826 1010,213.5C 1008.37,212.045 1007.21,210.378 1006.5,208.5C 1005.51,208.672 1004.84,208.338 1004.5,207.5 Z"/></g>
<g><path style="opacity:1" fill="#dabdf2" d="M 1166.5,159.5 C 1168.49,185.145 1169.16,211.145 1168.5,237.5C 1167.88,237.389 1167.38,237.056 1167,236.5C 1166.5,210.835 1166.33,185.169 1166.5,159.5 Z"/></g>
<g><path style="opacity:1" fill="#c495ea" d="M 1197.5,205.5 C 1197.73,207.716 1196.89,209.383 1195,210.5C 1194.5,218.493 1194.33,226.493 1194.5,234.5C 1194.17,234.5 1193.83,234.5 1193.5,234.5C 1193.5,234.167 1193.5,233.833 1193.5,233.5C 1193.5,226.833 1193.5,220.167 1193.5,213.5C 1193.12,211.302 1193.79,209.635 1195.5,208.5C 1196.17,207.5 1196.83,206.5 1197.5,205.5 Z"/></g>
<g><path style="opacity:1" fill="#e8d6f6" d="M 1264.5,205.5 C 1263.24,207.422 1262.08,209.422 1261,211.5C 1260.33,220.189 1260.49,228.856 1261.5,237.5C 1260.17,237.5 1259.5,236.833 1259.5,235.5C 1259.33,227.16 1259.5,218.827 1260,210.5C 1260.72,209.956 1261.22,209.289 1261.5,208.5C 1261.5,206.5 1262.5,205.5 1264.5,205.5 Z"/></g>
<g><path style="opacity:1" fill="#e8d6f7" d="M 1356.5,211.5 C 1357.75,211.577 1358.58,212.244 1359,213.5C 1360.24,222.471 1359.41,231.138 1356.5,239.5C 1355.82,239.863 1355.15,240.196 1354.5,240.5C 1356.38,235.47 1357.72,230.303 1358.5,225C 1358.07,220.455 1357.4,215.955 1356.5,211.5 Z"/></g>
<g><path style="opacity:1" fill="#c698eb" d="M 660.5,220.5 C 661.496,220.414 662.329,220.748 663,221.5C 664.445,224.09 665.612,226.757 666.5,229.5C 667.5,229.5 668.5,229.5 669.5,229.5C 669.461,232.81 670.794,235.476 673.5,237.5C 674.086,237.291 674.586,236.957 675,236.5C 675.307,240.047 676.14,243.38 677.5,246.5C 671.103,238.302 665.436,229.635 660.5,220.5 Z"/></g>
<g><path style="opacity:1" fill="#e0c7f4" d="M 1384.5,223.5 C 1386.03,223.427 1387.03,224.094 1387.5,225.5C 1385.97,225.573 1384.97,224.906 1384.5,223.5 Z"/></g>
<g><path style="opacity:1" fill="#d3b0ef" d="M 1387.5,225.5 C 1388.87,225.343 1390.21,225.51 1391.5,226C 1393.53,227.594 1395.53,229.094 1397.5,230.5C 1393.67,229.633 1390.34,227.967 1387.5,225.5 Z"/></g>
<g><path style="opacity:1" fill="#e5d0f6" d="M 1078.5,212.5 C 1079.82,220.01 1079.82,227.677 1078.5,235.5C 1077.82,235.863 1077.15,236.196 1076.5,236.5C 1078.32,228.709 1078.98,220.709 1078.5,212.5 Z"/></g>
<g><path style="opacity:1" fill="#d0abee" d="M 1630.5,59.5 C 1630.5,59.8333 1630.5,60.1667 1630.5,60.5C 1630.17,60.5 1629.83,60.5 1629.5,60.5C 1180.83,60.5 732.167,60.5 283.5,60.5C 282.501,161.332 282.167,262.332 282.5,363.5C 282.167,363.5 281.833,363.5 281.5,363.5C 281.5,262.167 281.5,160.833 281.5,59.5C 731.167,59.5 1180.83,59.5 1630.5,59.5 Z"/></g>
<g><path style="opacity:1" fill="#e1c8f4" d="M 722.5,224.5 C 723.15,224.804 723.817,225.137 724.5,225.5C 725.17,227.291 725.837,228.958 726.5,230.5C 727.568,231.434 728.901,231.768 730.5,231.5C 730.5,231.833 730.5,232.167 730.5,232.5C 728.5,232.5 726.5,232.5 724.5,232.5C 724.713,229.549 724.046,226.882 722.5,224.5 Z"/></g>
<g><path style="opacity:1" fill="#efe2f9" d="M 732.5,224.5 C 731.833,226.833 731.167,229.167 730.5,231.5C 728.901,231.768 727.568,231.434 726.5,230.5C 727.5,230.5 728.5,230.5 729.5,230.5C 729.34,228.801 729.506,227.134 730,225.5C 730.671,224.748 731.504,224.414 732.5,224.5 Z"/></g>
<g><path style="opacity:1" fill="#cfa9ee" d="M 1355.5,211.5 C 1355.83,211.5 1356.17,211.5 1356.5,211.5C 1357.4,215.955 1358.07,220.455 1358.5,225C 1357.72,230.303 1356.38,235.47 1354.5,240.5C 1353.83,240.833 1353.17,241.167 1352.5,241.5C 1356.13,231.81 1357.13,221.81 1355.5,211.5 Z"/></g>
<g><path style="opacity:1" fill="#e1c9f4" d="M 1524.5,227.5 C 1522.88,229.942 1520.55,231.275 1517.5,231.5C 1519.57,229.801 1521.9,228.468 1524.5,227.5 Z"/></g>
<g><path style="opacity:1" fill="#e3cdf4" d="M 550.5,207.5 C 550.5,207.833 550.5,208.167 550.5,208.5C 543.188,208.131 536.021,208.797 529,210.5C 528.832,227.672 528.332,244.672 527.5,261.5C 527.5,244.167 527.5,226.833 527.5,209.5C 534.923,207.745 542.589,207.079 550.5,207.5 Z"/></g>
<g><path style="opacity:1" fill="#c89bec" d="M 793.5,219.5 C 788.925,227.415 783.925,235.082 778.5,242.5C 779.92,239.739 780.587,236.739 780.5,233.5C 781.5,233.5 782.5,233.5 783.5,233.5C 783.5,231.833 783.5,230.167 783.5,228.5C 784.5,228.5 785.5,228.5 786.5,228.5C 786.5,227.5 786.5,226.5 786.5,225.5C 787.5,225.5 788.5,225.5 789.5,225.5C 789.342,222.478 790.675,220.478 793.5,219.5 Z"/></g>
<g><path style="opacity:1" fill="#ede0f8" d="M 1514.5,232.5 C 1510.65,235.035 1506.31,236.035 1501.5,235.5C 1505.68,234.34 1510.01,233.34 1514.5,232.5 Z"/></g>
<g><path style="opacity:1" fill="#c18fe9" d="M 1403.5,232.5 C 1405.03,233.105 1406.03,234.271 1406.5,236C 1400.41,236.617 1394.58,238.117 1389,240.5C 1387.22,239.464 1385.39,239.464 1383.5,240.5C 1383.83,239.833 1384.17,239.167 1384.5,238.5C 1391,236.633 1397.33,234.633 1403.5,232.5 Z"/></g>
<g><path style="opacity:1" fill="#e1c8f4" d="M 1501.5,235.5 C 1494.44,237.561 1487.11,238.561 1479.5,238.5C 1486.57,236.588 1493.9,235.588 1501.5,235.5 Z"/></g>
<g><path style="opacity:1" fill="#d8b9f1" d="M 1658.5,48.5 C 1658.5,48.8333 1658.5,49.1667 1658.5,49.5C 1658.17,49.5 1657.83,49.5 1657.5,49.5C 1190.17,49.5 722.833,49.5 255.5,49.5C 254.501,157.665 254.167,265.999 254.5,374.5C 253.501,266.335 253.167,158.001 253.5,49.5C 721.666,48.5001 1190,48.1668 1658.5,48.5 Z"/></g>
<g><path style="opacity:1" fill="#e1c9f4" d="M 1463.5,238.5 C 1455.01,239.33 1446.34,239.83 1437.5,240C 1436.17,241 1436.17,242 1437.5,243C 1461.67,243.168 1485.67,243.668 1509.5,244.5C 1484.83,244.667 1460.16,244.5 1435.5,244C 1432.83,242.333 1432.83,240.667 1435.5,239C 1444.83,238.5 1454.16,238.334 1463.5,238.5 Z"/></g>
<g><path style="opacity:1" fill="#ebddf7" d="M 253.5,49.5 C 253.167,158.001 253.501,266.335 254.5,374.5C 254.5,374.833 254.5,375.167 254.5,375.5C 253.167,321.504 252.5,267.171 252.5,212.5C 252.5,157.999 252.833,103.666 253.5,49.5 Z"/></g>
<g><path style="opacity:1" fill="#e8d6f7" d="M 648.5,204.5 C 649.5,204.5 650.5,204.5 651.5,204.5C 651.025,207.313 652.025,209.313 654.5,210.5C 654.5,211.167 654.5,211.833 654.5,212.5C 655.611,215.838 657.611,218.505 660.5,220.5C 665.436,229.635 671.103,238.302 677.5,246.5C 680.46,250.64 682.794,255.14 684.5,260C 683.87,261.31 682.87,262.144 681.5,262.5C 681.663,260.143 681.497,257.81 681,255.5C 678.984,254.045 678.151,252.045 678.5,249.5C 677.5,249.5 676.5,249.5 675.5,249.5C 673.881,244.204 671.047,239.537 667,235.5C 665.248,231.387 663.415,227.387 661.5,223.5C 660.5,223.5 659.5,223.5 658.5,223.5C 655.549,216.995 652.216,210.662 648.5,204.5 Z"/></g>
<g><path style="opacity:1" fill="#d9b9f1" d="M 1384.5,238.5 C 1384.17,239.167 1383.83,239.833 1383.5,240.5C 1381.83,241.167 1380.17,241.833 1378.5,242.5C 1380.03,240.631 1382.03,239.298 1384.5,238.5 Z"/></g>
<g><path style="opacity:1" fill="#ebdef6" d="M 1193.5,234.5 C 1193.83,234.5 1194.17,234.5 1194.5,234.5C 1194.73,236.062 1195.4,237.395 1196.5,238.5C 1196.5,239.833 1196.5,241.167 1196.5,242.5C 1197.5,242.5 1198.5,242.5 1199.5,242.5C 1199.5,243.5 1199.5,244.5 1199.5,245.5C 1201.62,245.468 1202.95,246.468 1203.5,248.5C 1196.89,246.191 1193.56,241.524 1193.5,234.5 Z"/></g>
<g><path style="opacity:1" fill="#c9a0ea" d="M 1196.5,238.5 C 1199.8,242.141 1203.14,245.808 1206.5,249.5C 1205.39,249.443 1204.39,249.11 1203.5,248.5C 1202.95,246.468 1201.62,245.468 1199.5,245.5C 1199.5,244.5 1199.5,243.5 1199.5,242.5C 1198.5,242.5 1197.5,242.5 1196.5,242.5C 1196.5,241.167 1196.5,239.833 1196.5,238.5 Z"/></g>
<g><path style="opacity:1" fill="#d5b4f0" d="M 1288.5,239.5 C 1286.91,241.821 1284.58,242.821 1281.5,242.5C 1282.93,241.463 1284.6,240.796 1286.5,240.5C 1287.17,240.167 1287.83,239.833 1288.5,239.5 Z"/></g>
<g><path style="opacity:1" fill="#ebdbf8" d="M 1354.5,240.5 C 1353.31,242.481 1351.98,244.481 1350.5,246.5C 1349.38,247.63 1348.04,248.297 1346.5,248.5C 1348.53,246.142 1350.53,243.808 1352.5,241.5C 1353.17,241.167 1353.83,240.833 1354.5,240.5 Z"/></g>
<g><path style="opacity:1" fill="#cda5ed" d="M 1263.5,240.5 C 1268.34,242.152 1273.34,242.818 1278.5,242.5C 1274.69,243.645 1270.69,243.812 1266.5,243C 1265.06,242.623 1264.06,241.79 1263.5,240.5 Z"/></g>
<g><path style="opacity:1" fill="#eddff8" d="M 1075.5,237.5 C 1075.83,237.5 1076.17,237.5 1076.5,237.5C 1075.96,240.555 1075.13,243.555 1074,246.5C 1072.55,248.464 1070.72,249.797 1068.5,250.5C 1068.83,249.833 1069.17,249.167 1069.5,248.5C 1070.79,247.71 1071.96,246.71 1073,245.5C 1073.66,242.715 1074.49,240.049 1075.5,237.5 Z"/></g>
<g><path style="opacity:1" fill="#dfc5f3" d="M 1376.5,243.5 C 1376.5,246.5 1376.5,249.5 1376.5,252.5C 1375.7,250.811 1374.7,249.145 1373.5,247.5C 1374.52,246.099 1375.52,244.765 1376.5,243.5 Z"/></g>
<g><path style="opacity:1" fill="#dfc6f4" d="M 1524.5,246.5 C 1528.71,246.677 1532.37,248.01 1535.5,250.5C 1531.61,249.538 1527.94,248.204 1524.5,246.5 Z"/></g>
<g><path style="opacity:1" fill="#ebdaf7" d="M 1178.5,239.5 C 1179.83,239.5 1181.17,239.5 1182.5,239.5C 1181.71,247.536 1179.71,255.202 1176.5,262.5C 1177.76,255.893 1178.76,249.226 1179.5,242.5C 1179.31,241.416 1178.98,240.416 1178.5,239.5 Z"/></g>
<g><path style="opacity:1" fill="#cca3ed" d="M 1378.5,242.5 C 1377.02,246.679 1377.36,250.679 1379.5,254.5C 1378.5,253.833 1377.5,253.167 1376.5,252.5C 1376.5,249.5 1376.5,246.5 1376.5,243.5C 1376.84,242.662 1377.51,242.328 1378.5,242.5 Z"/></g>
<g><path style="opacity:1" fill="#eddff8" d="M 800.5,209.5 C 800.657,210.873 800.49,212.207 800,213.5C 798.191,215.714 796.524,218.048 795,220.5C 794.517,221.448 794.351,222.448 794.5,223.5C 793.5,223.5 792.5,223.5 791.5,223.5C 789.984,228.848 787.15,233.515 783,237.5C 781.306,242.019 779.472,246.353 777.5,250.5C 776.5,250.5 775.5,250.5 774.5,250.5C 774.5,251.833 774.5,253.167 774.5,254.5C 773.5,254.5 772.5,254.5 771.5,254.5C 772.084,257.285 771.084,258.952 768.5,259.5C 769.167,258.5 769.833,257.5 770.5,256.5C 770.351,255.448 770.517,254.448 771,253.5C 774.142,250.205 776.642,246.539 778.5,242.5C 783.925,235.082 788.925,227.415 793.5,219.5C 795.844,216.135 798.177,212.802 800.5,209.5 Z"/></g>
<g><path style="opacity:1" fill="#e5d0f5" d="M 1102.5,250.5 C 1105.26,253.274 1108.26,255.608 1111.5,257.5C 1106.75,257.302 1103.75,254.969 1102.5,250.5 Z"/></g>
<g><path style="opacity:1" fill="#e2caf4" d="M 1213.5,253.5 C 1215.4,253.796 1217.07,254.463 1218.5,255.5C 1216.3,255.88 1214.64,255.213 1213.5,253.5 Z"/></g>
<g><path style="opacity:1" fill="#dec4f3" d="M 1069.5,248.5 C 1069.17,249.167 1068.83,249.833 1068.5,250.5C 1063.3,255.656 1056.97,258.656 1049.5,259.5C 1052.28,258.067 1055.28,256.9 1058.5,256C 1062.61,253.983 1066.28,251.483 1069.5,248.5 Z"/></g>
<g><path style="opacity:1" fill="#dcc0f2" d="M 1344.5,249.5 C 1340.72,253.333 1336.05,255.666 1330.5,256.5C 1335.12,254.175 1339.79,251.842 1344.5,249.5 Z"/></g>
<g><path style="opacity:1" fill="#e1caf5" d="M 1379.5,254.5 C 1381.03,254.427 1382.03,255.094 1382.5,256.5C 1380.97,256.573 1379.97,255.906 1379.5,254.5 Z"/></g>
<g><path style="opacity:1" fill="#d2adef" d="M 973.5,257.5 C 971.833,257.5 970.167,257.5 968.5,257.5C 967.833,258.167 967.167,258.833 966.5,259.5C 966.5,258.5 966.5,257.5 966.5,256.5C 969.059,256.198 971.393,256.532 973.5,257.5 Z"/></g>
<g><path style="opacity:1" fill="#d3afef" d="M 527.5,209.5 C 527.5,226.833 527.5,244.167 527.5,261.5C 505.167,261.5 482.833,261.5 460.5,261.5C 460.5,261.167 460.5,260.833 460.5,260.5C 482.5,260.5 504.5,260.5 526.5,260.5C 526.17,243.325 526.503,226.325 527.5,209.5 Z"/></g>
<g><path style="opacity:1" fill="#d8baf1" d="M 622.5,197.5 C 623.117,197.611 623.617,197.944 624,198.5C 624.5,219.164 624.667,239.831 624.5,260.5C 601.67,261.663 578.67,261.83 555.5,261C 554.508,243.91 554.175,226.744 554.5,209.5C 555.833,226.5 557.167,243.5 558.5,260.5C 579.5,260.5 600.5,260.5 621.5,260.5C 622.832,250.856 623.499,240.856 623.5,230.5C 623.466,219.469 623.133,208.469 622.5,197.5 Z"/></g>
<g><path style="opacity:1" fill="#d8b7f0" d="M 968.5,257.5 C 968.64,259.124 967.973,260.29 966.5,261C 948.836,261.5 931.17,261.667 913.5,261.5C 913.5,261.167 913.5,260.833 913.5,260.5C 913.833,260.5 914.167,260.5 914.5,260.5C 931.88,260.806 949.214,260.472 966.5,259.5C 967.167,258.833 967.833,258.167 968.5,257.5 Z"/></g>
<g><path style="opacity:1" fill="#e8d6f6" d="M 1234.5,259.5 C 1238.36,259.808 1242.03,260.475 1245.5,261.5C 1242.48,261.665 1239.48,261.498 1236.5,261C 1235.58,260.722 1234.92,260.222 1234.5,259.5 Z"/></g>
<g><path style="opacity:1" fill="#f3ecfa" d="M 432.5,210.5 C 432.825,227.744 432.492,244.91 431.5,262C 408.663,262.83 385.996,262.663 363.5,261.5C 386.006,261.831 408.34,261.497 430.5,260.5C 431.167,243.833 431.833,227.167 432.5,210.5 Z"/></g>
<g><path style="opacity:1" fill="#f5eefa" d="M 625.5,197.5 C 626.831,218.902 626.831,240.402 625.5,262C 601.457,262.823 577.457,262.656 553.5,261.5C 553.136,243.609 552.136,225.943 550.5,208.5C 551.959,208.433 553.292,208.766 554.5,209.5C 554.175,226.744 554.508,243.91 555.5,261C 578.67,261.83 601.67,261.663 624.5,260.5C 625.497,239.673 625.831,218.673 625.5,197.5 Z"/></g>
<g><path style="opacity:1" fill="#dabdf2" d="M 770.5,256.5 C 769.833,257.5 769.167,258.5 768.5,259.5C 767.92,261.749 766.587,263.415 764.5,264.5C 765.845,262.303 767.011,259.97 768,257.5C 768.671,256.748 769.504,256.414 770.5,256.5 Z"/></g>
<g><path style="opacity:1" fill="#ecddf8" d="M 1044.5,260.5 C 1040.46,262.177 1036.12,262.844 1031.5,262.5C 1035.57,260.946 1039.9,260.28 1044.5,260.5 Z"/></g>
<g><path style="opacity:1" fill="#c99eec" d="M 1172.5,239.5 C 1174.5,239.5 1176.5,239.5 1178.5,239.5C 1178.98,240.416 1179.31,241.416 1179.5,242.5C 1178.76,249.226 1177.76,255.893 1176.5,262.5C 1161.66,262.829 1146.99,262.496 1132.5,261.5C 1146.83,261.5 1161.17,261.5 1175.5,261.5C 1175.87,254.45 1176.53,247.45 1177.5,240.5C 1175.59,240.784 1173.92,240.451 1172.5,239.5 Z"/></g>
<g><path style="opacity:1" fill="#f0e4f9" d="M 1322.5,258.5 C 1322.08,259.222 1321.42,259.722 1320.5,260C 1298.45,263.476 1276.45,264.309 1254.5,262.5C 1277.33,263.418 1300,262.084 1322.5,258.5 Z"/></g>
<g><path style="opacity:1" fill="#e6d3f5" d="M 1483.5,263.5 C 1466.83,263.333 1450.16,263.5 1433.5,264C 1432.32,265.145 1432.32,266.312 1433.5,267.5C 1430.04,266.74 1429.71,265.24 1432.5,263C 1449.67,262.172 1466.67,262.338 1483.5,263.5 Z"/></g>
<g><path style="opacity:1" fill="#dbbef2" d="M 680.5,262.5 C 680.389,263.117 680.056,263.617 679.5,264C 669.506,264.5 659.506,264.666 649.5,264.5C 649.167,264.5 648.833,264.5 648.5,264.5C 659.017,263.74 669.683,263.073 680.5,262.5 Z"/></g>
<g><path style="opacity:1" fill="#d9bbf2" d="M 1391.5,261.5 C 1388.32,263.01 1384.98,264.343 1381.5,265.5C 1384.11,262.84 1387.45,261.507 1391.5,261.5 Z"/></g>
<g><path style="opacity:1" fill="#fdfcfe" d="M 1483.5,263.5 C 1484.17,263.5 1484.83,263.5 1485.5,263.5C 1485.57,264.959 1485.23,266.292 1484.5,267.5C 1467.5,267.5 1450.5,267.5 1433.5,267.5C 1432.32,266.312 1432.32,265.145 1433.5,264C 1450.16,263.5 1466.83,263.333 1483.5,263.5 Z"/></g>
<g><path style="opacity:1" fill="#d1adef" d="M 1538.5,253.5 C 1539.83,254.167 1540.83,255.167 1541.5,256.5C 1541.66,258.857 1541.5,261.19 1541,263.5C 1540.8,265.32 1539.97,266.653 1538.5,267.5C 1539.16,264.844 1539.82,262.178 1540.5,259.5C 1540.28,257.307 1539.61,255.307 1538.5,253.5 Z"/></g>
<g><path style="opacity:1" fill="#d7b8f1" d="M 1485.5,263.5 C 1486.5,263.47 1487.16,263.97 1487.5,265C 1487.25,266.749 1486.25,267.582 1484.5,267.5C 1485.23,266.292 1485.57,264.959 1485.5,263.5 Z"/></g>
<g><path style="opacity:1" fill="#e7d5f6" d="M 1541.5,256.5 C 1544.31,263.471 1542.31,268.471 1535.5,271.5C 1535.77,269.57 1536.77,268.236 1538.5,267.5C 1539.97,266.653 1540.8,265.32 1541,263.5C 1541.5,261.19 1541.66,258.857 1541.5,256.5 Z"/></g>
<g><path style="opacity:1" fill="#e1cbf4" d="M 648.5,264.5 C 650.626,270.714 652.292,277.047 653.5,283.5C 652.542,283.047 651.708,282.381 651,281.5C 651.025,276.195 649.858,271.195 647.5,266.5C 647.543,265.584 647.876,264.917 648.5,264.5 Z"/></g>
<g><path style="opacity:1" fill="#e7d4f6" d="M 1379.5,266.5 C 1379.11,269.513 1379.77,272.18 1381.5,274.5C 1380.5,274.586 1379.67,274.252 1379,273.5C 1378.2,270.961 1378.37,268.628 1379.5,266.5 Z"/></g>
<g><path style="opacity:1" fill="#d1adef" d="M 1381.5,265.5 C 1380.35,268.596 1380.68,271.596 1382.5,274.5C 1382.17,274.5 1381.83,274.5 1381.5,274.5C 1379.77,272.18 1379.11,269.513 1379.5,266.5C 1379.84,265.662 1380.51,265.328 1381.5,265.5 Z"/></g>
<g><path style="opacity:1" fill="#e1c8f4" d="M 758.5,271.5 C 756.417,274.246 753.75,276.246 750.5,277.5C 752.373,274.551 755.039,272.551 758.5,271.5 Z"/></g>
<g><path style="opacity:1" fill="#d7baed" d="M 1391.5,279.5 C 1395.36,279.808 1399.03,280.475 1402.5,281.5C 1398.51,281.884 1394.84,281.217 1391.5,279.5 Z"/></g>
<g><path style="opacity:1" fill="#ebdbf8" d="M 1515.5,279.5 C 1515.08,280.222 1514.42,280.722 1513.5,281C 1510.85,281.497 1508.19,281.664 1505.5,281.5C 1508.63,280.419 1511.96,279.753 1515.5,279.5 Z"/></g>
<g><path style="opacity:1" fill="#e4cff5" d="M 1504.5,281.5 C 1501.03,282.525 1497.36,283.192 1493.5,283.5C 1496.84,281.783 1500.51,281.116 1504.5,281.5 Z"/></g>
<g><path style="opacity:1" fill="#d8bdee" d="M 1402.5,281.5 C 1407.1,281.28 1411.43,281.946 1415.5,283.5C 1410.9,283.72 1406.57,283.054 1402.5,281.5 Z"/></g>
<g><path style="opacity:1" fill="#c99eeb" d="M 648.5,264.5 C 648.833,264.5 649.167,264.5 649.5,264.5C 650.209,265.404 651.209,265.737 652.5,265.5C 652.908,271.535 653.574,277.535 654.5,283.5C 674.5,283.5 694.5,283.5 714.5,283.5C 694.167,284.833 673.833,284.833 653.5,283.5C 652.292,277.047 650.626,270.714 648.5,264.5 Z"/></g>
<g><path style="opacity:1" fill="#e3dced" d="M 947.5,343.5 C 949.43,347.373 950.097,351.706 949.5,356.5C 950.5,356.5 951.5,356.5 952.5,356.5C 951.081,357.451 949.415,357.784 947.5,357.5C 947.5,352.833 947.5,348.167 947.5,343.5 Z"/></g>
<g><path style="opacity:1" fill="#e7e1f1" d="M 947.5,343.5 C 945.167,343.5 942.833,343.5 940.5,343.5C 938.519,356.458 937.852,369.791 938.5,383.5C 937.17,377.202 936.503,370.535 936.5,363.5C 936.667,356.833 936.833,350.167 937,343.5C 940.601,342.18 944.101,342.18 947.5,343.5 Z"/></g>
<g><path style="opacity:1" fill="#cfc2e2" d="M 940.5,343.5 C 939.52,356.421 939.186,369.421 939.5,382.5C 942.279,382.721 944.946,382.388 947.5,381.5C 945.012,383.388 942.012,384.055 938.5,383.5C 937.852,369.791 938.519,356.458 940.5,343.5 Z"/></g>
<g><path style="opacity:1" fill="#dfd7eb" d="M 1031.5,343.5 C 1031.17,343.5 1030.83,343.5 1030.5,343.5C 1028.5,343.5 1026.5,343.5 1024.5,343.5C 1022.52,356.458 1021.85,369.791 1022.5,383.5C 1021.5,370.01 1021.17,356.344 1021.5,342.5C 1025.04,342.187 1028.38,342.521 1031.5,343.5 Z"/></g>
<g><path style="opacity:1" fill="#e4deef" d="M 738.5,355.5 C 748.57,353.747 758.57,354.414 768.5,357.5C 768.083,358.124 767.416,358.457 766.5,358.5C 757.389,355.776 748.056,354.776 738.5,355.5 Z"/></g>
<g><path style="opacity:1" fill="#e6e0f0" d="M 725.5,357.5 C 724.391,357.443 723.391,357.11 722.5,356.5C 720.105,355.186 717.605,355.186 715,356.5C 714.196,365.578 714.363,374.578 715.5,383.5C 713.527,374.225 712.86,364.558 713.5,354.5C 717.182,354.335 720.848,354.501 724.5,355C 725.252,355.671 725.586,356.504 725.5,357.5 Z"/></g>
<g><path style="opacity:1" fill="#cbbee0" d="M 722.5,356.5 C 720.5,356.5 718.5,356.5 716.5,356.5C 716.5,365.167 716.5,373.833 716.5,382.5C 718.833,382.5 721.167,382.5 723.5,382.5C 723.334,375.492 723.5,368.492 724,361.5C 725.356,360.62 726.856,360.286 728.5,360.5C 727.791,361.404 726.791,361.737 725.5,361.5C 725.5,368.833 725.5,376.167 725.5,383.5C 722.167,383.5 718.833,383.5 715.5,383.5C 714.363,374.578 714.196,365.578 715,356.5C 717.605,355.186 720.105,355.186 722.5,356.5 Z"/></g>
<g><path style="opacity:1" fill="#b4a1d1" d="M 940.5,343.5 C 942.833,343.5 945.167,343.5 947.5,343.5C 947.5,348.167 947.5,352.833 947.5,357.5C 949.415,357.784 951.081,357.451 952.5,356.5C 966.351,354.583 980.018,355.25 993.5,358.5C 993.231,360.429 993.731,362.095 995,363.5C 995.667,367.833 995.667,372.167 995,376.5C 991.317,379.757 987.15,382.09 982.5,383.5C 970.738,383.966 959.071,383.3 947.5,381.5C 944.946,382.388 942.279,382.721 939.5,382.5C 939.186,369.421 939.52,356.421 940.5,343.5 Z"/></g>
<g><path style="opacity:1" fill="#b5a2d2" d="M 1109.5,356.5 C 1111.6,357.912 1113.94,358.912 1116.5,359.5C 1117.78,365.18 1117.78,370.847 1116.5,376.5C 1113.34,379.917 1109.34,382.083 1104.5,383C 1092.83,383.667 1081.17,383.667 1069.5,383C 1066.72,382.478 1064.39,381.311 1062.5,379.5C 1062.31,377.804 1061.48,376.471 1060,375.5C 1059.5,371.179 1059.33,366.846 1059.5,362.5C 1061.89,358.449 1065.55,356.283 1070.5,356C 1083.52,355.289 1096.52,355.455 1109.5,356.5 Z"/></g>
<g><path style="opacity:1" fill="#e7e1f0" d="M 1109.5,356.5 C 1112.33,356.694 1115,357.361 1117.5,358.5C 1119.4,363.269 1119.9,368.269 1119,373.5C 1118.62,374.942 1117.79,375.942 1116.5,376.5C 1117.78,370.847 1117.78,365.18 1116.5,359.5C 1113.94,358.912 1111.6,357.912 1109.5,356.5 Z"/></g>
<g><path style="opacity:1" fill="#b4a1d1" d="M 1175.5,355.5 C 1178.64,356.433 1181.98,357.099 1185.5,357.5C 1187.35,357.66 1188.69,356.993 1189.5,355.5C 1191.5,355.5 1193.5,355.5 1195.5,355.5C 1196.47,365.751 1196.81,376.085 1196.5,386.5C 1196.47,388.199 1195.81,389.533 1194.5,390.5C 1191.67,391.108 1189.01,392.108 1186.5,393.5C 1173.51,394.763 1160.51,394.763 1147.5,393.5C 1147.5,392.5 1147.5,391.5 1147.5,390.5C 1157.99,391.652 1168.32,391.652 1178.5,390.5C 1185.24,391.091 1188.24,388.091 1187.5,381.5C 1175.24,383.417 1162.91,383.917 1150.5,383C 1148.28,382.434 1146.28,381.6 1144.5,380.5C 1143.83,379.5 1143.17,378.5 1142.5,377.5C 1142.33,371.824 1142.5,366.157 1143,360.5C 1143.72,359.956 1144.22,359.289 1144.5,358.5C 1146.14,357.68 1147.81,356.847 1149.5,356C 1158.16,355.5 1166.83,355.334 1175.5,355.5 Z"/></g>
<g><path style="opacity:1" fill="#dad0e8" d="M 1175.5,355.5 C 1180.24,356.019 1184.91,356.019 1189.5,355.5C 1188.69,356.993 1187.35,357.66 1185.5,357.5C 1181.98,357.099 1178.64,356.433 1175.5,355.5 Z"/></g>
<g><path style="opacity:1" fill="#cdc0e0" d="M 1024.5,343.5 C 1023.52,356.421 1023.19,369.421 1023.5,382.5C 1025.83,382.5 1028.17,382.5 1030.5,382.5C 1030.5,369.5 1030.5,356.5 1030.5,343.5C 1030.83,343.5 1031.17,343.5 1031.5,343.5C 1033.48,356.458 1034.15,369.791 1033.5,383.5C 1029.83,383.5 1026.17,383.5 1022.5,383.5C 1021.85,369.791 1022.52,356.458 1024.5,343.5 Z"/></g>
<g><path style="opacity:1" fill="#b19ed0" d="M 1024.5,343.5 C 1026.5,343.5 1028.5,343.5 1030.5,343.5C 1030.5,356.5 1030.5,369.5 1030.5,382.5C 1028.17,382.5 1025.83,382.5 1023.5,382.5C 1023.19,369.421 1023.52,356.421 1024.5,343.5 Z"/></g>
<g><path style="opacity:1" fill="#b29ed0" d="M 738.5,355.5 C 748.056,354.776 757.389,355.776 766.5,358.5C 767.416,358.457 768.083,358.124 768.5,357.5C 779.398,355.717 790.398,355.05 801.5,355.5C 804.475,356.341 806.975,358.008 809,360.5C 809.5,367.826 809.666,375.159 809.5,382.5C 807.167,382.5 804.833,382.5 802.5,382.5C 802.83,375.468 802.497,368.468 801.5,361.5C 800.482,360.807 799.482,360.141 798.5,359.5C 789.631,357.965 780.964,358.299 772.5,360.5C 771.167,360.5 769.833,360.5 768.5,360.5C 766.537,367.424 765.87,374.757 766.5,382.5C 764.167,382.5 761.833,382.5 759.5,382.5C 760.128,375.087 759.461,368.087 757.5,361.5C 757.167,361.5 756.833,361.5 756.5,361.5C 755.713,359.896 754.38,359.229 752.5,359.5C 749.518,358.835 746.352,358.502 743,358.5C 738.228,358.308 733.728,358.975 729.5,360.5C 729.167,360.5 728.833,360.5 728.5,360.5C 726.856,360.286 725.356,360.62 724,361.5C 723.5,368.492 723.334,375.492 723.5,382.5C 721.167,382.5 718.833,382.5 716.5,382.5C 716.5,373.833 716.5,365.167 716.5,356.5C 718.5,356.5 720.5,356.5 722.5,356.5C 723.391,357.11 724.391,357.443 725.5,357.5C 729.814,356.725 734.147,356.059 738.5,355.5 Z"/></g>
<g><path style="opacity:1" fill="#ebe6f2" d="M 752.5,359.5 C 744.83,359.778 737.164,360.111 729.5,360.5C 733.728,358.975 738.228,358.308 743,358.5C 746.352,358.502 749.518,358.835 752.5,359.5 Z"/></g>
<g><path style="opacity:1" fill="#fdfcfe" d="M 984.5,361.5 C 984.5,366.833 984.5,372.167 984.5,377.5C 979.647,378.996 974.647,379.662 969.5,379.5C 963.491,379.233 957.491,378.9 951.5,378.5C 949.621,373.13 948.955,367.463 949.5,361.5C 950.791,361.737 951.791,361.404 952.5,360.5C 963.241,357.504 973.908,357.837 984.5,361.5 Z"/></g>
<g><path style="opacity:1" fill="#fbfafc" d="M 1105.5,360.5 C 1107.71,365.247 1108.04,370.247 1106.5,375.5C 1104.79,376.887 1103.12,378.221 1101.5,379.5C 1092.86,380.544 1084.19,380.711 1075.5,380C 1074.09,378.628 1072.42,377.795 1070.5,377.5C 1069.3,372.144 1069.3,366.811 1070.5,361.5C 1071.84,360.207 1073.51,359.374 1075.5,359C 1085.61,358.041 1095.61,358.541 1105.5,360.5 Z"/></g>
<g><path style="opacity:1" fill="#fdfcfd" d="M 1184.5,359.5 C 1185.21,360.404 1186.21,360.737 1187.5,360.5C 1187.5,366.167 1187.5,371.833 1187.5,377.5C 1176.51,379.767 1165.51,379.934 1154.5,378C 1152,375.781 1151,372.948 1151.5,369.5C 1151.34,366.232 1152.01,363.232 1153.5,360.5C 1153.92,359.778 1154.58,359.278 1155.5,359C 1165.18,358.38 1174.85,358.546 1184.5,359.5 Z"/></g>
<g><path style="opacity:1" fill="#dcd4e9" d="M 887.5,355.5 C 889.765,355.441 890.098,356.274 888.5,358C 885.039,361.33 882.205,365.163 880,369.5C 879.329,370.252 878.496,370.586 877.5,370.5C 880.593,365.193 883.927,360.193 887.5,355.5 Z"/></g>
<g><path style="opacity:1" fill="#e2daed" d="M 952.5,360.5 C 951.791,361.404 950.791,361.737 949.5,361.5C 948.955,367.463 949.621,373.13 951.5,378.5C 950.167,378.5 948.833,378.5 947.5,378.5C 947.334,372.824 947.501,367.157 948,361.5C 949.356,360.62 950.856,360.286 952.5,360.5 Z"/></g>
<g><path style="opacity:1" fill="#efe4f9" d="M 283.5,60.5 C 283.5,161.167 283.5,261.833 283.5,362.5C 399.167,362.5 514.833,362.5 630.5,362.5C 630.5,366.833 630.5,371.167 630.5,375.5C 629.5,375.5 628.5,375.5 627.5,375.5C 627.5,375.167 627.5,374.833 627.5,374.5C 628.482,371.038 628.815,367.371 628.5,363.5C 513.167,363.5 397.833,363.5 282.5,363.5C 282.167,262.332 282.501,161.332 283.5,60.5 Z"/></g>
<g><path style="opacity:1" fill="#ede0f8" d="M 1629.5,60.5 C 1629.83,60.5 1630.17,60.5 1630.5,60.5C 1630.5,161.5 1630.5,262.5 1630.5,363.5C 1515.33,363.167 1400.33,363.5 1285.5,364.5C 1284.17,367.833 1284.17,371.167 1285.5,374.5C 1285.5,374.833 1285.5,375.167 1285.5,375.5C 1284.5,375.5 1283.5,375.5 1282.5,375.5C 1282.5,371.167 1282.5,366.833 1282.5,362.5C 1398.17,362.5 1513.83,362.5 1629.5,362.5C 1629.5,261.833 1629.5,161.167 1629.5,60.5 Z"/></g>
<g><path style="opacity:1" fill="#d0acee" d="M 281.5,363.5 C 281.833,363.5 282.167,363.5 282.5,363.5C 397.833,363.5 513.167,363.5 628.5,363.5C 628.815,367.371 628.482,371.038 627.5,374.5C 627.813,370.958 627.479,367.625 626.5,364.5C 511.332,364.833 396.332,364.5 281.5,363.5 Z"/></g>
<g><path style="opacity:1" fill="#d0c4e2" d="M 801.5,355.5 C 805.716,355.201 808.883,356.868 811,360.5C 811.5,368.159 811.666,375.826 811.5,383.5C 807.5,383.5 803.5,383.5 799.5,383.5C 799.77,375.445 799.437,367.445 798.5,359.5C 799.482,360.141 800.482,360.807 801.5,361.5C 802.497,368.468 802.83,375.468 802.5,382.5C 804.833,382.5 807.167,382.5 809.5,382.5C 809.666,375.159 809.5,367.826 809,360.5C 806.975,358.008 804.475,356.341 801.5,355.5 Z"/></g>
<g><path style="opacity:1" fill="#c3b4db" d="M 768.5,360.5 C 767.534,368.08 767.201,375.747 767.5,383.5C 764.5,383.5 761.5,383.5 758.5,383.5C 757.536,376.254 757.203,368.92 757.5,361.5C 759.461,368.087 760.128,375.087 759.5,382.5C 761.833,382.5 764.167,382.5 766.5,382.5C 765.87,374.757 766.537,367.424 768.5,360.5 Z"/></g>
<g><path style="opacity:1" fill="#ece7f3" d="M 768.5,360.5 C 769.833,360.5 771.167,360.5 772.5,360.5C 771.791,361.404 770.791,361.737 769.5,361.5C 770.13,369.243 769.463,376.576 767.5,383.5C 767.201,375.747 767.534,368.08 768.5,360.5 Z"/></g>
<g><path style="opacity:1" fill="#e7e1f0" d="M 993.5,358.5 C 994.474,359.635 995.641,360.635 997,361.5C 1001.28,375.177 996.445,382.51 982.5,383.5C 987.15,382.09 991.317,379.757 995,376.5C 995.667,372.167 995.667,367.833 995,363.5C 993.731,362.095 993.231,360.429 993.5,358.5 Z"/></g>
<g><path style="opacity:1" fill="#e1daec" d="M 756.5,361.5 C 756.833,361.5 757.167,361.5 757.5,361.5C 757.203,368.92 757.536,376.254 758.5,383.5C 756.537,376.576 755.87,369.243 756.5,361.5 Z"/></g>
<g><path style="opacity:1" fill="#b6a4d3" d="M 840.5,357.5 C 841.412,359.595 842.579,361.595 844,363.5C 844.671,364.252 845.504,364.586 846.5,364.5C 851.194,368.527 855.527,372.86 859.5,377.5C 860.209,378.404 861.209,378.737 862.5,378.5C 863.716,374.264 866.216,370.93 870,368.5C 870.483,367.552 870.649,366.552 870.5,365.5C 871.822,365.67 872.989,365.337 874,364.5C 876.162,362.18 877.662,359.513 878.5,356.5C 881.287,355.523 884.287,355.19 887.5,355.5C 883.927,360.193 880.593,365.193 877.5,370.5C 873.416,373.543 870.083,377.21 867.5,381.5C 866.504,381.414 865.671,381.748 865,382.5C 863.465,388.035 859.965,391.535 854.5,393C 847.476,393.831 840.476,393.664 833.5,392.5C 833.709,391.914 834.043,391.414 834.5,391C 839.5,390.667 844.5,390.333 849.5,390C 851.624,388.137 853.624,386.137 855.5,384C 853.133,381.494 850.799,378.994 848.5,376.5C 848.586,375.504 848.252,374.671 847.5,374C 846.1,372.562 844.433,371.729 842.5,371.5C 842.5,370.5 842.5,369.5 842.5,368.5C 841.5,368.5 840.5,368.5 839.5,368.5C 836.437,363.928 832.77,359.761 828.5,356C 832.167,355.333 835.833,355.333 839.5,356C 840.056,356.383 840.389,356.883 840.5,357.5 Z"/></g>
<g><path style="opacity:1" fill="#ccc0e0" d="M 840.5,357.5 C 843.936,358.603 845.936,360.936 846.5,364.5C 845.504,364.586 844.671,364.252 844,363.5C 842.579,361.595 841.412,359.595 840.5,357.5 Z"/></g>
<g><path style="opacity:1" fill="#dad1e8" d="M 1059.5,362.5 C 1059.33,366.846 1059.5,371.179 1060,375.5C 1061.48,376.471 1062.31,377.804 1062.5,379.5C 1061.21,378.71 1060.04,377.71 1059,376.5C 1058.18,371.648 1058.35,366.981 1059.5,362.5 Z"/></g>
<g><path style="opacity:1" fill="#cabddf" d="M 1070.5,361.5 C 1069.3,366.811 1069.3,372.144 1070.5,377.5C 1068.45,375.374 1067.45,372.708 1067.5,369.5C 1067.67,367.5 1067.83,365.5 1068,363.5C 1068.71,362.619 1069.54,361.953 1070.5,361.5 Z"/></g>
<g><path style="opacity:1" fill="#cbbedf" d="M 1105.5,360.5 C 1106.5,360.414 1107.33,360.748 1108,361.5C 1108.83,366.533 1108.66,371.533 1107.5,376.5C 1106.05,378.559 1104.05,379.559 1101.5,379.5C 1103.12,378.221 1104.79,376.887 1106.5,375.5C 1108.04,370.247 1107.71,365.247 1105.5,360.5 Z"/></g>
<g><path style="opacity:1" fill="#cfc3e2" d="M 984.5,361.5 C 988.356,366.932 988.356,372.265 984.5,377.5C 984.5,372.167 984.5,366.833 984.5,361.5 Z"/></g>
<g><path style="opacity:1" fill="#cbbedf" d="M 1142.5,358.5 C 1143.17,358.5 1143.83,358.5 1144.5,358.5C 1144.22,359.289 1143.72,359.956 1143,360.5C 1142.5,366.157 1142.33,371.824 1142.5,377.5C 1140.01,371.294 1140.01,364.961 1142.5,358.5 Z"/></g>
<g><path style="opacity:1" fill="#e5dfef" d="M 877.5,370.5 C 876.455,373.545 874.455,375.545 871.5,376.5C 871.226,378.981 869.893,380.647 867.5,381.5C 870.083,377.21 873.416,373.543 877.5,370.5 Z"/></g>
<g><path style="opacity:1" fill="#c292ea" d="M 255.5,49.5 C 255.5,157.5 255.5,265.5 255.5,373.5C 379.167,373.5 502.833,373.5 626.5,373.5C 626.5,370.5 626.5,367.5 626.5,364.5C 627.479,367.625 627.813,370.958 627.5,374.5C 627.5,374.833 627.5,375.167 627.5,375.5C 503.167,375.5 378.833,375.5 254.5,375.5C 254.5,375.167 254.5,374.833 254.5,374.5C 254.167,265.999 254.501,157.665 255.5,49.5 Z"/></g>
<g><path style="opacity:1" fill="#d1c5e2" d="M 1195.5,355.5 C 1196.5,355.5 1197.5,355.5 1198.5,355.5C 1198.67,365.172 1198.5,374.839 1198,384.5C 1197.72,385.416 1197.22,386.082 1196.5,386.5C 1196.81,376.085 1196.47,365.751 1195.5,355.5 Z"/></g>
<g><path style="opacity:1" fill="#f2eef6" d="M 1198.5,355.5 C 1199.83,360.288 1200.49,365.454 1200.5,371C 1200.33,376.167 1200.17,381.333 1200,386.5C 1198.29,387.308 1197.46,388.641 1197.5,390.5C 1196.5,390.5 1195.5,390.5 1194.5,390.5C 1195.81,389.533 1196.47,388.199 1196.5,386.5C 1197.22,386.082 1197.72,385.416 1198,384.5C 1198.5,374.839 1198.67,365.172 1198.5,355.5 Z"/></g>
<g><path style="opacity:1" fill="#bf8de9" d="M 1657.5,49.5 C 1657.83,49.5 1658.17,49.5 1658.5,49.5C 1658.5,157.833 1658.5,266.167 1658.5,374.5C 1534.17,374.5 1409.83,374.5 1285.5,374.5C 1284.17,371.167 1284.17,367.833 1285.5,364.5C 1285.83,364.5 1286.17,364.5 1286.5,364.5C 1286.5,367.5 1286.5,370.5 1286.5,373.5C 1410.17,373.5 1533.83,373.5 1657.5,373.5C 1657.5,265.5 1657.5,157.5 1657.5,49.5 Z"/></g>
<g><path style="opacity:1" fill="#e2daed" d="M 839.5,368.5 C 840.5,368.5 841.5,368.5 842.5,368.5C 842.5,369.5 842.5,370.5 842.5,371.5C 844.433,371.729 846.1,372.562 847.5,374C 848.252,374.671 848.586,375.504 848.5,376.5C 845.805,375.537 843.472,374.037 841.5,372C 840.695,370.887 840.028,369.721 839.5,368.5 Z"/></g>
<g><path style="opacity:1" fill="#d5cbe5" d="M 1184.5,359.5 C 1185.83,359.5 1187.17,359.5 1188.5,359.5C 1188.5,365.833 1188.5,372.167 1188.5,378.5C 1176.82,380.807 1165.16,380.974 1153.5,379C 1150.97,376.427 1149.97,373.261 1150.5,369.5C 1150.67,367.167 1150.83,364.833 1151,362.5C 1151.71,361.619 1152.54,360.953 1153.5,360.5C 1152.01,363.232 1151.34,366.232 1151.5,369.5C 1151,372.948 1152,375.781 1154.5,378C 1165.51,379.934 1176.51,379.767 1187.5,377.5C 1187.5,371.833 1187.5,366.167 1187.5,360.5C 1186.21,360.737 1185.21,360.404 1184.5,359.5 Z"/></g>
<g><path style="opacity:1" fill="#d4b1ef" d="M 1658.5,49.5 C 1659.5,157.999 1659.83,266.665 1659.5,375.5C 1534.83,375.5 1410.17,375.5 1285.5,375.5C 1285.5,375.167 1285.5,374.833 1285.5,374.5C 1409.83,374.5 1534.17,374.5 1658.5,374.5C 1658.5,266.167 1658.5,157.833 1658.5,49.5 Z"/></g>
<g><path style="opacity:1" fill="#e0d8ec" d="M 878.5,356.5 C 877.662,359.513 876.162,362.18 874,364.5C 872.989,365.337 871.822,365.67 870.5,365.5C 870.649,366.552 870.483,367.552 870,368.5C 866.216,370.93 863.716,374.264 862.5,378.5C 861.209,378.737 860.209,378.404 859.5,377.5C 861.697,375.313 863.864,372.979 866,370.5C 866.483,369.552 866.649,368.552 866.5,367.5C 867.5,367.5 868.5,367.5 869.5,367.5C 869.325,364.671 870.658,363.004 873.5,362.5C 874.782,360.821 875.782,358.987 876.5,357C 877.094,356.536 877.761,356.369 878.5,356.5 Z"/></g>
<g><path style="opacity:1" fill="#e7e1f0" d="M 1142.5,358.5 C 1140.01,364.961 1140.01,371.294 1142.5,377.5C 1143.17,378.5 1143.83,379.5 1144.5,380.5C 1141.57,379.711 1139.73,377.711 1139,374.5C 1138.33,370.5 1138.33,366.5 1139,362.5C 1139.74,360.681 1140.91,359.348 1142.5,358.5 Z"/></g>
<g><path style="opacity:1" fill="#dbd3e9" d="M 984.5,377.5 C 983.653,378.966 982.32,379.8 980.5,380C 976.5,380.167 972.5,380.333 968.5,380.5C 962.583,380.695 956.916,380.029 951.5,378.5C 957.491,378.9 963.491,379.233 969.5,379.5C 974.647,379.662 979.647,378.996 984.5,377.5 Z"/></g>
<g><path style="opacity:1" fill="#ede9f4" d="M 1178.5,390.5 C 1168.32,391.652 1157.99,391.652 1147.5,390.5C 1147.5,391.5 1147.5,392.5 1147.5,393.5C 1160.51,394.763 1173.51,394.763 1186.5,393.5C 1185.74,394.268 1184.74,394.768 1183.5,395C 1170.16,395.611 1156.82,395.444 1143.5,394.5C 1143.14,392.089 1144.14,390.589 1146.5,390C 1157.15,390.15 1167.82,390.316 1178.5,390.5 Z"/></g>
</svg>
